<mxfile><diagram id="Ebzo6nC4Y7-XfcZmmzhG" name="Page-1"><mxGraphModel dx="1066" dy="4111" grid="0" gridSize="10" guides="1" tooltips="1" connect="1" arrows="1" fold="1" page="1" pageScale="1" pageWidth="850" pageHeight="1100" background="#FFFFFF" math="0" shadow="0"><root><mxCell id="0"/><mxCell id="1" parent="0"/><mxCell id="2" value="Student" style="shape=umlActor;verticalLabelPosition=bottom;verticalAlign=top;html=1;outlineConnect=0;fontColor=#000000;fillColor=#f5f5f5;strokeColor=#666666;" parent="1" vertex="1"><mxGeometry x="130" y="-2190" width="30" height="60" as="geometry"/></mxCell><mxCell id="19" value="Lecturer" style="shape=umlActor;verticalLabelPosition=bottom;verticalAlign=top;html=1;outlineConnect=0;fontColor=#000000;fillColor=#f5f5f5;strokeColor=#666666;" vertex="1" parent="1"><mxGeometry x="420" y="-2190" width="30" height="60" as="geometry"/></mxCell><mxCell id="20" value="Admin" style="shape=umlActor;verticalLabelPosition=bottom;verticalAlign=top;html=1;outlineConnect=0;fontColor=#000000;fillColor=#f5f5f5;strokeColor=#666666;" vertex="1" parent="1"><mxGeometry x="680" y="-2190" width="30" height="60" as="geometry"/></mxCell><mxCell id="21" value="" style="line;strokeWidth=2;direction=south;html=1;" vertex="1" parent="1"><mxGeometry x="280" y="-2300" width="10" height="1670" as="geometry"/></mxCell><mxCell id="23" value="" style="line;strokeWidth=2;direction=south;html=1;" vertex="1" parent="1"><mxGeometry x="570" y="-2300" width="10" height="1670" as="geometry"/></mxCell><mxCell id="25" value="" style="shape=waypoint;fillStyle=solid;size=6;pointerEvents=1;points=[];fillColor=none;resizable=0;rotatable=0;perimeter=centerPerimeter;snapToPoint=1;strokeColor=#000000;" vertex="1" parent="1"><mxGeometry x="135" y="-2100" width="20" height="20" as="geometry"/></mxCell><mxCell id="34" value="" style="edgeStyle=none;html=1;fontColor=#000000;strokeColor=#000000;" edge="1" parent="1" source="33" target="25"><mxGeometry relative="1" as="geometry"/></mxCell><mxCell id="33" value="Log in to the system" style="rounded=1;whiteSpace=wrap;html=1;" vertex="1" parent="1"><mxGeometry x="85" y="-2040" width="120" height="60" as="geometry"/></mxCell><mxCell id="37" value="" style="endArrow=classic;html=1;exitX=0.5;exitY=1;exitDx=0;exitDy=0;strokeColor=#000000;" edge="1" parent="1" source="33"><mxGeometry width="50" height="50" relative="1" as="geometry"><mxPoint x="140" y="-1920" as="sourcePoint"/><mxPoint x="145" y="-1910" as="targetPoint"/><Array as="points"><mxPoint x="145" y="-1945"/></Array></mxGeometry></mxCell><mxCell id="38" value="Choose the courses to provide feedbacks" style="rounded=1;whiteSpace=wrap;html=1;" vertex="1" parent="1"><mxGeometry x="65" y="-1910" width="160" height="60" as="geometry"/></mxCell><mxCell id="39" value="" style="endArrow=classic;html=1;exitX=0.5;exitY=1;exitDx=0;exitDy=0;strokeColor=#000000;" edge="1" parent="1" source="38"><mxGeometry width="50" height="50" relative="1" as="geometry"><mxPoint x="135" y="-1770" as="sourcePoint"/><mxPoint x="145" y="-1780" as="targetPoint"/></mxGeometry></mxCell><mxCell id="40" value="Submit the feedbacks and the feedbacks store in database" style="rounded=1;whiteSpace=wrap;html=1;" vertex="1" parent="1"><mxGeometry x="40" y="-1780" width="220" height="80" as="geometry"/></mxCell><mxCell id="41" value="" style="endArrow=classic;html=1;exitX=0.5;exitY=1;exitDx=0;exitDy=0;strokeColor=#000000;" edge="1" parent="1" source="40"><mxGeometry width="50" height="50" relative="1" as="geometry"><mxPoint x="140" y="-1625" as="sourcePoint"/><mxPoint x="150" y="-1630" as="targetPoint"/><Array as="points"><mxPoint x="150" y="-1640"/></Array></mxGeometry></mxCell><mxCell id="42" value="System will analysis the feedbacks to generate useful insight" style="rounded=1;whiteSpace=wrap;html=1;" vertex="1" parent="1"><mxGeometry x="40" y="-1630" width="230" height="80" as="geometry"/></mxCell><mxCell id="43" value="" style="endArrow=classic;html=1;exitX=0.471;exitY=1.035;exitDx=0;exitDy=0;exitPerimeter=0;entryX=0.004;entryY=0.611;entryDx=0;entryDy=0;entryPerimeter=0;strokeColor=#000000;" edge="1" parent="1" source="42" target="44"><mxGeometry width="50" height="50" relative="1" as="geometry"><mxPoint x="330" y="-1510" as="sourcePoint"/><mxPoint x="450" y="-1510" as="targetPoint"/><Array as="points"><mxPoint x="148" y="-1510"/></Array></mxGeometry></mxCell><mxCell id="44" value="Notifications will be provided for new feedback submissions" style="rounded=1;whiteSpace=wrap;html=1;" vertex="1" parent="1"><mxGeometry x="470" y="-1550" width="210" height="70" as="geometry"/></mxCell><mxCell id="45" value="" style="endArrow=classic;html=1;strokeColor=#000000;" edge="1" parent="1"><mxGeometry width="50" height="50" relative="1" as="geometry"><mxPoint x="760" y="-1360" as="sourcePoint"/><mxPoint x="680" y="-1360" as="targetPoint"/></mxGeometry></mxCell><mxCell id="46" value="" style="endArrow=none;html=1;strokeColor=#000000;" edge="1" parent="1"><mxGeometry width="50" height="50" relative="1" as="geometry"><mxPoint x="680" y="-1510" as="sourcePoint"/><mxPoint x="760" y="-1510" as="targetPoint"/></mxGeometry></mxCell><mxCell id="47" value="" style="endArrow=none;html=1;strokeColor=#000000;" edge="1" parent="1"><mxGeometry width="50" height="50" relative="1" as="geometry"><mxPoint x="760" y="-1360" as="sourcePoint"/><mxPoint x="760" y="-1510" as="targetPoint"/></mxGeometry></mxCell><mxCell id="48" value="Access and view the feedbacks" style="rounded=1;whiteSpace=wrap;html=1;" vertex="1" parent="1"><mxGeometry x="470" y="-1390" width="210" height="60" as="geometry"/></mxCell><mxCell id="49" value="" style="endArrow=classic;html=1;exitX=0;exitY=0.5;exitDx=0;exitDy=0;startArrow=none;strokeColor=#000000;" edge="1" parent="1" source="54"><mxGeometry width="50" height="50" relative="1" as="geometry"><mxPoint x="390" y="-1360" as="sourcePoint"/><mxPoint x="270" y="-1360" as="targetPoint"/></mxGeometry></mxCell><mxCell id="50" value="Check the history of the feedbacks" style="rounded=1;whiteSpace=wrap;html=1;" vertex="1" parent="1"><mxGeometry x="40" y="-1390" width="230" height="60" as="geometry"/></mxCell><mxCell id="52" value="Generate report to sumarize feedbacks'data" style="rounded=1;whiteSpace=wrap;html=1;" vertex="1" parent="1"><mxGeometry x="470" y="-1250" width="210" height="80" as="geometry"/></mxCell><mxCell id="55" value="" style="endArrow=none;html=1;exitX=0;exitY=0.5;exitDx=0;exitDy=0;strokeColor=#000000;" edge="1" parent="1" source="48" target="54"><mxGeometry width="50" height="50" relative="1" as="geometry"><mxPoint x="470" y="-1360" as="sourcePoint"/><mxPoint x="270" y="-1360" as="targetPoint"/></mxGeometry></mxCell><mxCell id="54" value="" style="rhombus;whiteSpace=wrap;html=1;" vertex="1" parent="1"><mxGeometry x="370" y="-1370" width="15" height="20" as="geometry"/></mxCell><mxCell id="56" value="" style="edgeStyle=segmentEdgeStyle;endArrow=classic;html=1;curved=0;rounded=0;endSize=8;startSize=8;exitX=0.5;exitY=1;exitDx=0;exitDy=0;entryX=0;entryY=0.5;entryDx=0;entryDy=0;strokeColor=#000000;" edge="1" parent="1" source="54" target="52"><mxGeometry width="50" height="50" relative="1" as="geometry"><mxPoint x="375" y="-1270" as="sourcePoint"/><mxPoint x="425" y="-1320" as="targetPoint"/><Array as="points"><mxPoint x="378" y="-1210"/></Array></mxGeometry></mxCell><mxCell id="59" value="Giving responses based on the feedbacks" style="rounded=1;whiteSpace=wrap;html=1;" vertex="1" parent="1"><mxGeometry x="325" y="-1080" width="210" height="80" as="geometry"/></mxCell><mxCell id="60" value="" style="edgeStyle=segmentEdgeStyle;endArrow=classic;html=1;curved=0;rounded=0;endSize=8;startSize=8;entryX=0.5;entryY=0;entryDx=0;entryDy=0;strokeColor=#000000;" edge="1" parent="1" target="59"><mxGeometry width="50" height="50" relative="1" as="geometry"><mxPoint x="720" y="-1140" as="sourcePoint"/><mxPoint x="450" y="-1160" as="targetPoint"/></mxGeometry></mxCell><mxCell id="61" value="" style="shape=partialRectangle;whiteSpace=wrap;html=1;bottom=0;right=0;fillColor=none;rotation=90;strokeColor=#000000;" vertex="1" parent="1"><mxGeometry x="665" y="-1195" width="70" height="40" as="geometry"/></mxCell><mxCell id="63" value="" style="endArrow=classic;startArrow=classic;html=1;exitX=1;exitY=0.5;exitDx=0;exitDy=0;entryX=0;entryY=0.5;entryDx=0;entryDy=0;strokeColor=#000000;" edge="1" parent="1" source="59" target="64"><mxGeometry width="50" height="50" relative="1" as="geometry"><mxPoint x="550" y="-1010" as="sourcePoint"/><mxPoint x="610" y="-1030" as="targetPoint"/></mxGeometry></mxCell><mxCell id="64" value="Addressing issues raised and initiating changes" style="rounded=1;whiteSpace=wrap;html=1;" vertex="1" parent="1"><mxGeometry x="620" y="-1080" width="200" height="80" as="geometry"/></mxCell><mxCell id="65" value="" style="edgeStyle=segmentEdgeStyle;endArrow=classic;html=1;curved=0;rounded=0;endSize=8;startSize=8;entryX=1;entryY=0.5;entryDx=0;entryDy=0;strokeColor=#000000;" edge="1" parent="1" target="67"><mxGeometry width="50" height="50" relative="1" as="geometry"><mxPoint x="430" y="-1000" as="sourcePoint"/><mxPoint x="260" y="-920" as="targetPoint"/><Array as="points"><mxPoint x="430" y="-920"/></Array></mxGeometry></mxCell><mxCell id="67" value="Notifications will be provided for new responses" style="rounded=1;whiteSpace=wrap;html=1;" vertex="1" parent="1"><mxGeometry x="45" y="-960" width="220" height="80" as="geometry"/></mxCell><mxCell id="68" value="" style="endArrow=classic;html=1;exitX=0.5;exitY=1;exitDx=0;exitDy=0;strokeColor=#000000;" edge="1" parent="1" source="64"><mxGeometry width="50" height="50" relative="1" as="geometry"><mxPoint x="600" y="-920" as="sourcePoint"/><mxPoint x="720" y="-920" as="targetPoint"/></mxGeometry></mxCell><mxCell id="69" value="Manage the system including user management,system configuration and access control" style="rounded=1;whiteSpace=wrap;html=1;" vertex="1" parent="1"><mxGeometry x="620" y="-920" width="200" height="100" as="geometry"/></mxCell><mxCell id="70" value="" style="endArrow=classic;html=1;exitX=0.5;exitY=1;exitDx=0;exitDy=0;strokeColor=#000000;" edge="1" parent="1" source="69"><mxGeometry width="50" height="50" relative="1" as="geometry"><mxPoint x="685" y="-740" as="sourcePoint"/><mxPoint x="720" y="-740" as="targetPoint"/></mxGeometry></mxCell><mxCell id="71" value="Maintaining and updating the system including database backups,system upgrades and bug fixes" style="rounded=1;whiteSpace=wrap;html=1;" vertex="1" parent="1"><mxGeometry x="620" y="-740" width="200" height="100" as="geometry"/></mxCell><mxCell id="74" value="" style="shape=sumEllipse;perimeter=ellipsePerimeter;whiteSpace=wrap;html=1;backgroundOutline=1;strokeColor=#000000;fontColor=#000000;fillColor=#FFFFFF;" vertex="1" parent="1"><mxGeometry x="147" y="-713" width="24" height="24" as="geometry"/></mxCell><mxCell id="77" value="" style="endArrow=classic;html=1;strokeColor=#000000;fontColor=#000000;" edge="1" parent="1"><mxGeometry width="50" height="50" relative="1" as="geometry"><mxPoint x="158" y="-881" as="sourcePoint"/><mxPoint x="158" y="-713" as="targetPoint"/></mxGeometry></mxCell><mxCell id="78" value="" style="endArrow=classic;html=1;strokeColor=#000000;fontColor=#000000;entryX=1;entryY=0.5;entryDx=0;entryDy=0;" edge="1" parent="1" target="74"><mxGeometry width="50" height="50" relative="1" as="geometry"><mxPoint x="619" y="-701" as="sourcePoint"/><mxPoint x="426" y="-799" as="targetPoint"/></mxGeometry></mxCell></root></mxGraphModel></diagram></mxfile>